# xmcd
#
# Track frame offsets:
#	150
#	9660
#	20737
#	32577
#	48377
#	55855
#	68367
#	76130
#	86750
#	97990
#	105017
#	121360
#	132067
#	141707
#	154355
#	163132
#	175425
#	185352
#	193257
#	207165
#	215747
#	228570
#	238090
#	248752
#	264077
#	274132
#	287142
#	295792
#	306105
#	315552
#	324620
#	332750
#
# Disc length: 4541 seconds
# Revision: 3
# Processed by: cddbd v1.5.2PL0 Copyright (c) Steve Scherf et al.
# Submitted via: dBpowerAMP V12.0
#
DISCID=d111bb20
DTITLE=Greenhorns - Banjo z mlžných lesů
DYEAR=1998
DGENRE=Country
TTITLE0=01 Banjo z mlžných hor
TTITLE1=02 Blues Folsomské věznice
TTITLE2=03 Jižní vítr 
TTITLE3=04 Zatracenej život
TTITLE4=05 Kamarád
TTITLE5=06 Den se chýlí
TTITLE6=07 Lodní zvon zvoní
TTITLE7=08 Duel
TTITLE8=09 Na sluneční straně hor
TTITLE9=10 Vyju na měsíc
TTITLE10=11 Přes pláně
TTITLE11=12 Rovnou tady rovnou
TTITLE12=13 Království za koně
TTITLE13=14 Je všechno O.K.
TTITLE14=15 Psí píseň
TTITLE15=16 Bluegrassový part č. 1
TTITLE16=17 Černá a bílá noc
TTITLE17=18 Boty po strýci
TTITLE18=19 Zátoka
TTITLE19=20 Sněžnej muž
TTITLE20=21 Vltavská marina
TTITLE21=22 Šest dní na silnici
TTITLE22=23 Už tě vlak přiváží
TTITLE23=24 Červená řeka
TTITLE24=25 Tak já jdu dál
TTITLE25=26 Vlak má zelenou
TTITLE26=27 Step hoří
TTITLE27=28 Oči pálí a silnice je jak klín černej
TTITLE28=29 Já v poslední době
TTITLE29=30 Jižní vlak
TTITLE30=31 Hrady
TTITLE31=32 Vlak na Flint Hill
EXTD=
EXTT0=
EXTT1=
EXTT2=
EXTT3=
EXTT4=
EXTT5=
EXTT6=
EXTT7=
EXTT8=
EXTT9=
EXTT10=
EXTT11=
EXTT12=
EXTT13=
EXTT14=
EXTT15=
EXTT16=
EXTT17=
EXTT18=
EXTT19=
EXTT20=
EXTT21=
EXTT22=
EXTT23=
EXTT24=
EXTT25=
EXTT26=
EXTT27=
EXTT28=
EXTT29=
EXTT30=
EXTT31=
PLAYORDER=
